#!OML:ASF E:\Steps\Project 1\Capture day 1\Session 2\Subject.ASF
:FULLY-SPECIFIED
:DEGREES
183
root 9.01242 16.2154 31.611 -159.193 -2.7641 179.257
lowerback -26.3885 -1.7407 -4.81872
upperback -0.644769 -1.17971 -0.402284
thorax 14.1775 -1.01596 1.82394
lowerneck -7.00451 -1.99927 3.23533
upperneck 13.5334 -3.01005 -3.26268
head 5.1178 -1.66762 -1.75004
rclavicle -4.67144e-015 1.03368e-014
rhumerus -34.9866 -23.0027 -76.6931
rradius 23.3207
rwrist 7.74623
rhand -6.96735 -51.7146
rfingers 7.12502
rthumb 18.9022 -80.8162
lclavicle -4.67144e-015 1.03368e-014
lhumerus -31.3087 13.9023 76.4531
lradius 13.4257
lwrist -16.8987
lhand -18.5137 -11.0369
lfingers 7.12502
lthumb 7.7745 18.8002
rfemur -21.0381 8.10013 20.3115
rtibia 11.2098
rfoot -21.0362 -9.36127
rtoes -22.3082
lfemur -23.4941 -10.2908 -19.8031
ltibia 13.2486
lfoot -9.60156 2.01271
ltoes -39.9448
184
root 9.01344 16.2164 31.6103 -159.146 -2.76582 179.15
lowerback -26.4093 -1.76911 -4.9689
upperback -0.645915 -1.17229 -0.396292
thorax 14.1904 -1.02405 1.91961
lowerneck -7.02873 -2.00886 3.23066
upperneck 13.5502 -3.01949 -3.29057
head 5.12634 -1.67447 -1.75919
rclavicle -1.4561e-014 1.19271e-014
rhumerus -35.092 -23.1319 -76.452
rradius 23.1997
rwrist 7.90023
rhand -7.08532 -51.1167
rfingers 7.12502
rthumb 18.7888 -80.2293
lclavicle -1.4561e-014 1.19271e-014
lhumerus -31.3864 14.2335 76.3313
lradius 13.3076
lwrist -17.3031
lhand -18.4769 -11.3935
lfingers 7.12502
lthumb 7.81008 18.4423
rfemur -21.0443 7.77856 20.2309
rtibia 11.1253
rfoot -21.0072 -9.13792
rtoes -22.5225
lfemur -23.5223 -10.2881 -19.9228
ltibia 13.2227
lfoot -9.53564 1.92056
ltoes -39.6661
185
root 9.01283 16.2171 31.6073 -159.125 -2.77356 179.032
lowerback -26.4194 -1.79579 -5.12965
upperback -0.624293 -1.15503 -0.398899
thorax 14.2238 -1.02763 2.0152
lowerneck -7.0991 -2.01883 3.25993
upperneck 13.5737 -3.03221 -3.32466
head 5.14406 -1.68113 -1.77682
rclavicle 6.60959e-015 0
rhumerus -35.1527 -23.1196 -76.3262
rradius 23.1513
rwrist 7.81142
rhand -7.15851 -50.9864
rfingers 7.12502
rthumb 18.7184 -80.1058
lclavicle 6.60959e-015 0
lhumerus -31.4322 14.503 76.2492
lradius 13.2172
lwrist -17.5968
lhand -18.5934 -11.8997
lfingers 7.12502
lthumb 7.69763 17.9402
rfemur -21.0627 7.98066 20.0565
rtibia 11.1441
rfoot -20.9201 -9.46748
rtoes -22.792
lfemur -23.5115 -10.2466 -20.0866
ltibia 13.1686
lfoot -9.41928 1.88976
ltoes -40.9192
186
root 9.01815 16.219 31.6017 -159.076 -2.67936 178.823
lowerback -26.4503 -1.85283 -5.47904
upperback -0.645635 -1.12617 -0.417452
thorax 14.2196 -1.04042 2.20488
lowerneck -7.1165 -2.01478 3.29098
upperneck 13.5908 -3.02501 -3.37216
head 5.1512 -1.67952 -1.79682
rclavicle -5.46658e-015 1.15295e-014
rhumerus -35.2985 -23.2105 -76.1357
rradius 23.0814
rwrist 7.86707
rhand -6.80937 -50.869
rfingers 7.12502
rthumb 19.0542 -79.9557
lclavicle -5.46658e-015 1.15295e-014
lhumerus -31.5614 14.3365 76.3238
lradius 13.2456
lwrist -17.393
lhand -18.7301 -12.2168
lfingers 7.12502
lthumb 7.56566 17.6279
rfemur -21.0791 7.93989 19.7848
rtibia 11.051
rfoot -20.7966 -9.485
rtoes -23.0864
lfemur -23.5247 -10.3272 -20.2918
ltibia 13.155
lfoot -9.47579 2.00312
ltoes -41.1998
187
root 9.03404 16.2228 31.5893 -158.939 -2.34897 178.451
lowerback -26.6892 -1.94103 -6.17454
upperback -0.67574 -1.02645 -0.438849
thorax 14.319 -1.05165 2.61355
lowerneck -7.12607 -2.01222 3.25995
upperneck 13.6163 -3.01423 -3.41176
head 5.16081 -1.67921 -1.80403
rclavicle 2.5842e-015 -1.07344e-014
rhumerus -35.4209 -23.3233 -75.8658
rradius 22.935
rwrist 8.02549
rhand -6.12983 -50.1529
rfingers 7.12502
rthumb 19.7075 -79.1739
lclavicle 2.5842e-015 -1.07344e-014
lhumerus -31.6955 14.141 76.4596
lradius 13.2966
lwrist -17.114
lhand -18.6318 -12.2472
lfingers 7.12502
lthumb 7.66052 17.594
rfemur -21.3116 8.79439 19.1437
rtibia 11.148
rfoot -20.8786 -10.1264
rtoes -23.1928
lfemur -23.591 -10.3128 -20.6048
ltibia 13.0855
lfoot -9.53458 2.0925
ltoes -40.0624
188
root 9.03019 16.2241 31.5885 -158.864 -2.37653 178.423
lowerback -26.7552 -1.93533 -6.17331
upperback -0.687001 -1.01862 -0.430769
thorax 14.3412 -1.04984 2.62428
lowerneck -7.15897 -2.02483 3.22841
upperneck 13.6433 -3.02564 -3.43441
head 5.17441 -1.68821 -1.80762
rclavicle -2.6339e-015 -1.39149e-014
rhumerus -35.4531 -23.5002 -75.644
rradius 22.8005
rwrist 8.2315
rhand -5.80289 -49.976
rfingers 7.12502
rthumb 20.0218 -78.9644
lclavicle -2.6339e-015 -1.39149e-014
lhumerus -31.7664 14.0288 76.5955
lradius 13.3962
lwrist -16.8872
lhand -18.4732 -12.0172
lfingers 7.12502
lthumb 7.81367 17.8184
rfemur -21.3465 8.46956 19.1276
rtibia 11.0728
rfoot -20.9132 -9.79803
rtoes -23.279
lfemur -23.6631 -10.3576 -20.6492
ltibia 13.0975
lfoot -9.54223 2.05438
ltoes -40.1514
189
root 9.02914 16.2236 31.5861 -158.825 -2.40207 178.465
lowerback -26.7993 -1.91049 -6.10061
upperback -0.696254 -1.00608 -0.440142
thorax 14.3517 -1.03958 2.57578
lowerneck -7.13569 -2.02759 3.25028
upperneck 13.6464 -3.02869 -3.46346
head 5.17044 -1.69093 -1.82012
rclavicle -6.26172e-015 7.55382e-015
rhumerus -35.5488 -23.6697 -75.4992
rradius 22.7949
rwrist 8.3832
rhand -5.51178 -50.3681
rfingers 7.12502
rthumb 20.3016 -79.327
lclavicle -6.26172e-015 7.55382e-015
lhumerus -31.8578 13.6982 76.763
lradius 13.5708
lwrist -16.3361
lhand -18.4324 -11.6175
lfingers 7.12502
lthumb 7.85297 18.2166
rfemur -21.4057 8.59347 19.167
rtibia 11.1755
rfoot -20.9887 -9.89958
rtoes -23.0196
lfemur -23.6885 -10.3595 -20.597
ltibia 13.0916
lfoot -9.56624 2.03132
ltoes -40.2697
